<svg width="60" height="60" viewBox="0 0 60 60" fill="none" xmlns="http://www.w3.org/2000/svg">
<path d="M23.3304 43.3335V58.667C23.3304 59.4035 23.9274 60.0005 24.6639 60.0005H35.3319C36.0684 60.0005 36.6654 59.4035 36.6654 58.667V43.3335C36.6654 39.6515 33.6804 36.667 29.9979 36.667C26.3154 36.667 23.3304 39.652 23.3304 43.3335Z" fill="#F9F0E4"/>
<path d="M13.335 6.66684C13.335 10.3233 10.373 13.3333 6.6675 13.3333C3.8405 13.3338 0 11.1388 0 6.66684C0 3.84384 2.1985 0.000336124 6.6675 0.000336124C10.3245 0.000336124 13.335 2.96034 13.335 6.66684ZM34.913 0.270336C33.8325 -0.216664 32.618 -0.0251639 31.7635 0.679836L2.947 24.2668C1.0865 25.7803 0.0135 28.0538 0.0135 30.4538L0.0025 54.6648C0.001 57.6113 2.3895 60.0003 5.3365 60.0003H11.9955C12.7315 60.0003 13.3285 59.4038 13.329 58.6678L13.342 34.8803C13.342 33.6803 13.882 32.5403 14.809 31.7868L35.444 14.8933C36.2175 14.2668 36.664 13.3198 36.664 12.3198V3.11734C36.664 1.91434 36.01 0.764836 34.913 0.270836V0.270336Z" fill="#FFA300"/>
<path d="M23.333 43.3335V58.667C23.333 59.4035 23.93 60.0005 24.6665 60.0005H35.3345C36.071 60.0005 36.668 59.4035 36.668 58.667V43.3335C36.668 39.6515 33.683 36.667 30.0005 36.667C26.318 36.667 23.333 39.652 23.333 43.3335Z" fill="#002A2A"/>
<path d="M53.3326 6.66699C48.8636 6.66699 46.6651 10.5105 46.6651 13.3335C46.6651 17.805 50.5056 20 53.3326 20C57.0381 20 60.0001 16.99 60.0001 13.3335C60.0001 9.67699 56.9896 6.66699 53.3326 6.66699ZM60.0001 36.1535V54.667C60.0001 57.6125 57.6121 60.0005 54.6661 60.0005H47.9986C47.2621 60.0005 46.6651 59.4035 46.6651 58.667V41.2115C46.6651 40.011 46.1266 38.874 45.1981 38.1135L37.8906 32.127C37.1176 31.4935 36.6641 30.5405 36.6641 29.5335V20.2285C36.6641 18.5705 38.0081 17.227 39.6661 17.227C40.3591 17.227 41.0311 17.467 41.5676 17.906L57.5596 30.994C59.1066 32.2605 60.0001 34.154 60.0001 36.154V36.1535Z" fill="#00847D"/>
</svg>
